<svg xmlns="http://www.w3.org/2000/svg"  viewBox="0 0 100 100" width="100px" height="100px"><path fill="#444445" d="M50.25,15.992c-19.33,0-35,15.67-35,35s15.67,35,35,35s35-15.67,35-35S69.58,15.992,50.25,15.992z M50.249,69.984c-10.493,0-19-8.507-19-19s8.507-19,19-19s19,8.507,19,19S60.743,69.984,50.249,69.984z"/><circle cx="50" cy="49.992" r="19" fill="none" stroke="#1f212b" stroke-miterlimit="10" stroke-width="2"/><path fill="#3a83c1" d="M50,31.745c-9.961,0.257-17.989,8.288-18.246,18.246H50V31.745L50,31.745z M50,68.242 c9.961-0.261,17.989-8.291,18.246-18.25H50V68.242L50,68.242z"/><circle cx="50" cy="50" r="35" fill="none" stroke="#1f212b" stroke-miterlimit="10" stroke-width="2"/><path fill="#e3e2e3" d="M35.66,30.455c-0.11-0.772-0.577-1.424-1.293-1.749c-0.718-0.326-1.551-0.204-2.184,0.241 c-0.052,0.039-0.1,0.083-0.147,0.122c0.105-0.359,0.136-0.722,0.047-1.084c-0.085-0.359-0.273-0.686-0.537-0.943 c-0.536-0.525-1.351-0.696-2.052-0.434c-0.329,0.125-0.627,0.338-0.848,0.611c-0.125,0.158-0.249,0.312-0.378,0.473 c-0.656,0.818-1.313,1.637-1.968,2.455c-0.564,0.705-1.125,1.41-1.691,2.114c-0.038,0.045-0.074,0.097-0.11,0.141 c-0.003,0,0.072,0.058,0.078,0.061c0.219,0.177,0.436,0.351,0.655,0.525c0.827,0.664,1.651,1.327,2.48,1.988 c0.816,0.656,1.637,1.311,2.457,1.966c0.208,0.169,0.418,0.335,0.627,0.5c0.006,0.011,0.056,0.058,0.064,0.047 c0.042-0.052,0.083-0.107,0.124-0.155c0.562-0.703,1.127-1.404,1.686-2.107c0.674-0.844,1.347-1.681,2.021-2.524 c0.348-0.431,0.732-0.844,0.896-1.385C35.674,31.035,35.69,30.745,35.66,30.455L35.66,30.455L35.66,30.455z M28.411,32.742 c-0.342-0.269-0.682-0.545-1.022-0.818c-0.13-0.103-0.26-0.205-0.39-0.312c-0.005-0.003,0.135-0.171,0.143-0.18 c0.633-0.796,1.269-1.587,1.904-2.38c0.168-0.205,0.318-0.431,0.575-0.534c0.349-0.147,0.763-0.055,1.018,0.226 c0.204,0.226,0.273,0.534,0.207,0.83c-0.077,0.265-0.263,0.456-0.428,0.664c-0.332,0.42-0.669,0.837-1.001,1.253 C29.08,31.905,28.744,32.32,28.411,32.742L28.411,32.742L28.411,32.742z M33.602,31.73c-0.216,0.268-0.429,0.536-0.646,0.805 c-0.591,0.74-1.183,1.479-1.774,2.215c-0.003,0.003-0.017,0.028-0.024,0.025c-0.031-0.025-0.06-0.052-0.089-0.075 c-0.163-0.128-0.323-0.255-0.484-0.384c-0.279-0.226-0.559-0.451-0.837-0.674c0.536-0.671,1.075-1.34,1.609-2.01 c0.263-0.329,0.523-0.653,0.785-0.982c0.186-0.232,0.423-0.4,0.733-0.409c0.373-0.009,0.699,0.205,0.857,0.539 C33.867,31.107,33.822,31.456,33.602,31.73L33.602,31.73z M70.226,26.703l-1.574-1.461l-5.124,6.729l1.576,1.461l5.617-2.572 l-3.74,4.917l1.083,1.858l7.686-3.528l-1.084-1.861l-4.437,2.034l3.153-4.138L72,28.421l-4.726,2.169L70.226,26.703z M47.423,22.247l1.799,5.677h1.417l1.795-5.677l0.188,5.677l1.987,0.318l-0.283-8.518l-2.552-0.321l-1.843,5.998l-1.846-5.998 l-2.552,0.321l-0.283,8.518l1.985-0.318L47.423,22.247z"/><path fill="none" stroke="#000" stroke-linecap="round" stroke-linejoin="round" stroke-miterlimit="10" stroke-width=".5" d="M35.735,30.382c-0.113-0.806-0.593-1.486-1.33-1.825c-0.739-0.34-1.596-0.213-2.248,0.252c-0.053,0.041-0.103,0.087-0.152,0.128 c0.108-0.374,0.14-0.754,0.048-1.132c-0.087-0.374-0.281-0.716-0.553-0.984c-0.551-0.548-1.39-0.726-2.112-0.453 c-0.339,0.131-0.645,0.353-0.872,0.638c-0.129,0.165-0.256,0.325-0.389,0.494c-0.676,0.854-1.351,1.709-2.025,2.562 c-0.58,0.736-1.158,1.472-1.74,2.206c-0.039,0.047-0.076,0.101-0.113,0.147c-0.003,0,0.074,0.061,0.081,0.064 c0.226,0.185,0.448,0.366,0.674,0.548c0.851,0.693,1.7,1.385,2.553,2.075c0.84,0.685,1.685,1.369,2.528,2.052 c0.214,0.177,0.431,0.35,0.645,0.522c0.006,0.011,0.058,0.061,0.066,0.049c0.044-0.054,0.085-0.111,0.127-0.162 c0.579-0.734,1.159-1.465,1.735-2.199c0.693-0.881,1.387-1.755,2.08-2.634c0.358-0.45,0.753-0.881,0.922-1.445 C35.75,30.987,35.766,30.685,35.735,30.382L35.735,30.382L35.735,30.382z M28.389,32.8c-0.357-0.282-0.713-0.57-1.068-0.855 c-0.136-0.108-0.272-0.215-0.408-0.326c-0.005-0.003,0.141-0.179,0.149-0.188c0.662-0.832,1.327-1.659,1.99-2.488 c0.175-0.215,0.333-0.45,0.601-0.559c0.365-0.154,0.798-0.057,1.065,0.236c0.213,0.236,0.285,0.559,0.216,0.868 c-0.08,0.277-0.275,0.477-0.447,0.695c-0.347,0.439-0.699,0.875-1.047,1.31C29.088,31.925,28.736,32.359,28.389,32.8L28.389,32.8 L28.389,32.8z M33.648,31.781c-0.226,0.28-0.449,0.56-0.675,0.842c-0.618,0.773-1.237,1.546-1.854,2.316 c-0.003,0.003-0.018,0.029-0.025,0.026c-0.033-0.026-0.062-0.054-0.093-0.079c-0.17-0.134-0.337-0.267-0.506-0.401 c-0.292-0.236-0.585-0.472-0.875-0.704c0.56-0.701,1.124-1.401,1.682-2.102c0.275-0.344,0.547-0.683,0.821-1.027 c0.195-0.242,0.442-0.418,0.767-0.428c0.39-0.01,0.731,0.215,0.896,0.563C33.925,31.129,33.878,31.494,33.648,31.781L33.648,31.781 z M70.213,26.715l-1.578-1.474L63.5,32.029l1.579,1.474l5.63-2.594l-3.748,4.96l1.085,1.874l7.704-3.559l-1.087-1.877l-4.448,2.052 l3.161-4.173l-1.384-1.736l-4.737,2.187L70.213,26.715z M47.456,22.128l1.826,5.763h1.438l1.822-5.763l0.191,5.763l2.017,0.323 l-0.288-8.645l-2.59-0.326l-1.87,6.088l-1.874-6.088l-2.59,0.326l-0.288,8.645l2.015-0.323L47.456,22.128z"/><g><path fill="none" stroke="#1f212b" stroke-linecap="round" stroke-linejoin="round" stroke-miterlimit="10" d="M49.5,42.63v-3.628 M30.753,50.492H49.5v-3.024 M49.5,35.373v-3.628l0,0 M68.246,50.492h-4.838 M58.57,50.492H49.5v18.75l0,0"/></g></svg>